<?xml version="1.0" standalone="no"?><!DOCTYPE svg PUBLIC "-//W3C//DTD SVG 1.1//EN" "http://www.w3.org/Graphics/SVG/1.1/DTD/svg11.dtd"><svg t="1699239498282" class="icon" viewBox="0 0 1258 1024" version="1.1" xmlns="http://www.w3.org/2000/svg" p-id="6947" xmlns:xlink="http://www.w3.org/1999/xlink" width="245.703125" height="200"><path d="M776.358105 296.544085l-178.357534-75.772331a17.187739 17.187739 0 0 0-22.227037 8.579242L504.667491 379.67423 712.485541 511.983251 877.677998 328.410884l-101.319893-31.866799z" fill="#1631A4" p-id="6948"></path><path d="M899.619793 168.477144s-16.90981 15.081327-38.325001 32.181298a780.689049 780.689049 0 0 1-19.411174 14.810712c-20.713054 15.395826-42.347663 29.306924-55.666333 31.859485-2.340458 0.482719-4.680916 0.85573-7.021374 1.067834-7.49678 0.694823-14.839967 0.051198-21.685807-1.119031a113.153834 113.153834 0 0 1-24.626008-7.679628c-6.743445-2.925573-10.276074-10.166365-8.213545-17.092658a400.035484 400.035484 0 0 1 24.304195-62.073337c10.327271-21.100692 26.096108-41.506561 39.034452-56.419668 12.506823-14.335306 22.285549-23.550859 22.285549-23.550859l58.935661 58.072616L899.619793 168.477144z" fill="#FFFFFF" p-id="6949"></path><path d="M848.422272 244.095882l-1.375019 11.278082-31.596184 37.191342-41.901513-17.224309s4.644347-17.699714 0.899613-28.502391c-7.284676 0.61437-14.459643 0.051198-21.108006-1.140973l12.923717-8.432963L827.52637 197.484196l7.752767 17.377901L848.422272 244.095882z" fill="#EAEAEA" p-id="6950"></path><path d="M863.050135 139.17022l-7.62843 62.680393a703.856199 703.856199 0 0 1-18.657839 14.964304c-19.967033 15.549418 12.909089 39.334324 0.102395 42.025851-2.245377 0.431522-35.428684 11.57064-37.725259 11.782743 3.605768-16.946379-25.452482-26.476432-28.275659-27.873393a6.772701 6.772701 0 0 1-2.457481-2.581818c-6.999432-13.018798 8.045325-62.797416-3.708164-60.698317-12.79938 2.267319 7.994127-43.261905 18.080039-53.486781 10.188307-10.224876 2.194179-21.685807 2.19418-21.685807 11.965592-14.47427 21.429819-23.836103 21.429819-23.836103L863.050135 139.17022z" fill="#EAEAEA" p-id="6951"></path><path d="M825.749085 29.219888C816.950425 38.918161 815.560778 38.801138 809.512157 50.474173c-5.141694 10.06397-9.639762 19.221012-10.166365 26.235072-1.075148 15.476279 9.420344 38.281118 3.152304 45.777897-6.216842 7.606489-17.246251 8.513416-21.312796 18.255573-4.022662 9.690959-4.878392 20.340044-4.878392 20.340044s11.08792-16.748903 18.10198-19.162501c8.996136-3.108421 20.09137 1.126345 20.515578 10.012773 0.431522 8.886427 0.270615 18.628584-6.750759 24.677205-7.01406 6.048621-21.956422 6.048621-21.956422 6.048621s-6.107133 23.075454-2.033273 35.604219c4.015348 12.579962 39.897496 39.407463 52.865097 41.009214 12.960287 1.609065 92.813791 2.142982 98.760017 0 5.946226-2.194179 30.206537-38.325001 30.747768-47.489358 0.533917-9.20824 15.103269-24.838111 9.749471-42.610965-5.412309-17.831365-14.891165-28.158636-11.629151-41.118923 3.21813-12.960287 3.481431-56.536691-23.506976-67.836714-26.995721-11.343908-60.413074-8.030697-72.261643-16.968322C857.462292 34.632197 850.543313 3.847859 850.543313 3.847859L825.749085 29.227202z" fill="#1631A4" p-id="6952"></path><path d="M498.5823 423.338401L335.145187 319.041738a28.838832 28.838832 0 0 0-41.440736 11.709604L138.970916 648.563608 252.702551 709.459402 577.806807 549.825533 498.5823 423.338401z" fill="#1631A4" p-id="6953"></path><path d="M321.819204 333.230765L453.491913 424.216073 680.201848 303.704423 549.969983 241.367785zM325.044647 329.134963L292.563478 155.216986 534.837459 87.775223 555.865012 239.063897z" fill="#B2B3B3" p-id="6954"></path><path d="M321.819204 329.134963v8.513417c0 2.018645 0.950811 3.876384 2.603759 5.046612L453.469971 431.530004v-13.881842L321.819204 329.134963zM453.469971 431.530004l217.370044-113.972994A17.546122 17.546122 0 0 0 680.201848 302.014905V299.879237L453.469971 417.589651V431.530004z" fill="#808080" p-id="6955"></path><path d="M612.840538 248.681717L585.120738 328.60836 776.570209 380.332484 841.108341 306.827472z" fill="#FFD648" p-id="6956"></path><path d="M329.074624 336.448895a30.667315 30.667315 0 0 1-10.06397-16.748903L285.308058 160.914539l8.425649 0.219418L329.074624 336.448895z" fill="#808080" p-id="6957"></path><path d="M789.91082 277.937443s-48.988713 7.057944-79.495121 35.655416c-30.499094 28.64867-41.762549 68.663189-66.688428 82.720565-24.867367 14.174399-42.559767 12.565334-42.559767 12.565335L585.120738 447.328097s50.641662 37.622864 53.026003 35.289719c2.39897-2.391656 146.293258-143.499336 146.293259-143.499336L789.91082 277.937443z" fill="#FFBC47" p-id="6958"></path><path d="M285.249546 160.709748L529.695765 95.089155l4.227452 1.733402L292.951116 160.914539z" fill="#808080" p-id="6959"></path><path d="M340.747658 301.363965L314.651551 167.182578a7.153025 7.153025 0 0 1 5.13438-8.301312l202.361857-56.207564a7.306618 7.306618 0 0 1 9.142414 5.909657l17.173111 114.645876a7.226164 7.226164 0 0 1-4.490754 7.825907L350.59221 306.681194a7.313932 7.313932 0 0 1-9.844552-5.324543" fill="#FFFFFF" p-id="6960"></path><path d="M366.741371 324.110292l81.360174 48.630331c0.694823 0.365697 1.492042 0.365697 2.179552 0.051198L592.43467 300.990955 535.042249 255.995648l-167.927868 64.267516a2.135668 2.135668 0 0 0-0.365696 3.847128" fill="#6774FF" p-id="6961"></path><path d="M520.282735 345.986262l41.177435-23.229047a1.601751 1.601751 0 0 1 1.616378 0l21.071437 11.585268c1.294566 0.702137 1.294566 2.750038 0 3.452175l-48.930202 26.97378c-0.658254 0.40958-1.572495 0.234046-2.106412-0.409581L519.73419 349.028857c-0.753335-0.936183-0.541231-2.457481 0.541231-3.042595" fill="#E6E6E5" p-id="6962"></path><path d="M672.887916 548.560223l-36.174705 55.95889s-118.098052 42.654849-120.826149 46.333756C513.115082 654.531776 446.156039 551.478481 446.156039 551.478481s2.618387-17.685086 20.040173-57.692292c8.974194-20.486322 21.744318-32.437286 32.108159-39.246556v-0.058511c9.888435-6.487457 17.590005-8.323254 17.590005-8.323255s22.651246 0.490033 37.352249 0.490034c6.465515-0.058511 11.380477-0.16822 11.914394-0.490034 1.974762-1.02395 107.726897 102.395041 107.726897 102.395042" fill="#FFBC47" p-id="6963"></path><path d="M621.690396 566.281879L507.519925 585.122566l-10.575945-24.677205s29.489772-18.570072 39.641509-29.91398C546.824993 519.260613 490.039628 454.715167 490.039628 454.715167v-0.051197C499.869552 447.98635 507.519925 446.157867 507.519925 446.157867s22.526909 0.497347 37.13283 0.497348l34.163374 42.523198L621.690396 566.281879z" fill="#E6A22A" p-id="6964"></path><path d="M453.469971 348.575393L588.909355 563.180772 658.260053 490.158479 519.990178 307.193169z" fill="#FFD648" p-id="6965"></path><path d="M504.667491 312.254409l-11.958278 7.650373L466.766698 336.448895s-1.923564-4.256708-4.644346-7.752768c-2.669585-3.605768-5.609785-4.973473-16.924438-9.946946-11.263455-4.966159-26.637339-32.488484-28.239089-48.930202-1.609065-16.485602 31.976509-31.128093 38.164094-34.404734 6.1949-3.327839 5.127066-10.210248 4.863765-16.763531-0.321813-6.60448-5.924285-17.312076-12.067987-23.426523-6.246098-6.063249-6.619108-8.359824-6.728817-11.526756-0.160906-3.327839 16.068708 4.154313 19.601336 6.070563 3.466804 1.901622 15.637186 27.953846 16.010196 34.068293 0.373011 6.23147 9.069275 8.250115 12.382486 11.577954 3.203502 3.276641 6.56791 48.388971 6.033994 54.45222-0.533917 6.063249 9.4496 22.387944 9.449599 22.387944M607.062533 261.605434l-5.712181 16.514857-8.601183 25.137983s-5.704867-2.135668-13.742878 0c-8.030697 2.194179-18.891885 2.501365-25.891317 3.773988-6.999432 1.279938-20.74231-5.456193-24.911251-8.264742-3.042596-2.08447-11.117176-3.561885-15.088641-4.227453-1.02395-0.102395-1.492042-1.375019-0.81916-2.142982 1.492042-1.733402 4.885706-4.944218 7.511408-5.500076 6.129075-1.170229 11.226885 2.391656 15.191035 2.135668 2.728096-0.20479 6.582538-1.828483 7.613803-3.364409 0.468092-0.658254 0.416894-1.272624-0.40958-1.784599-2.728096-1.733402-14.671747 0.921555-21.671179-3.313211-1.082462-0.658254-1.02395-4.68823 0.051197-9.946947v-0.043883c2.055215-10.407725 7.877104-25.957143 15.703011-31.362139 5.090496-3.569199 21.868655-5.814576 26.812873-4.995415 4.900334 0.760649 31.201232 22.431828 33.051657 23.762964 1.799227 1.272624 10.912386 3.620396 10.912386 3.620396" fill="#EAEAEA" p-id="6966"></path><path d="M285.249546 599.750429s49.14962-55.373775 45.551166-78.295637C327.202257 498.598756 308.15678 468.099662 308.15678 468.099662L373.016724 511.03244V599.750429H285.249546z" fill="#10257B" p-id="6967"></path><path d="M166.617577 668.508699s-7.474838 29.621423-23.697138 24.626008c-16.2223-4.988101-139.681464-47.759973-127.430629-31.003756C27.630936 678.879854 187.564677 775.284785 187.564677 775.284785L219.424162 697.574263l-52.806585-29.065564z" fill="#FFFFFF" p-id="6968"></path><path d="M1255.296282 655.665436c-10.956269 94.934831-53.581862 179.878832-121.491716 240.664916v0.051198a363.634047 363.634047 0 0 1-89.010546 58.686986c-131.52643 61.532106-285.499317 75.443204-428.837747 66.366614a844.503102 844.503102 0 0 1-74.251032-7.899046c-171.687228-26.410607-273.1534-104.157699-310.893287-213.32544 0 0-0.051198-0.051198-0.051198-0.102395a285.813816 285.813816 0 0 1-7.518721-25.291575c-32.159357-130.480538 149.299284-266.644001 149.299284-266.644001s58.467568 63.733599 145.21811 41.016528a139.871626 139.871626 0 0 0 18.899199-6.545969c72.956467-31.742463 105.386439-126.457876 186.18344-224.230512 22.819466-27.646661 52.609109-48.22075 86.158114-60.566667 43.920159-16.163789 91.592364-18.357968 137.816411-15.300745 44.8344 2.845119 90.890227 5.258717 132.601578 23.784905 83.159401 36.884157 137.7579 120.006988 160.306751 205.111896 15.57136 58.847893 22.548851 123.605443 15.57136 184.223307" fill="#6774FF" p-id="6969"></path><path d="M505.515907 307.463784L492.409342 314.5071c-4.329847-5.485449-12.111871-13.48689-22.760955-17.260878-17.143855-6.143702-8.601183-27.376046 2.633016-42.67679 11.175687-15.293431-4.622405-24.150602-6.670306-32.254438-1.930878-8.206231 9.361832 3.671594 9.361832 3.671593 0.40958 5.741436 9.946947 7.606489 13.574657 10.671026 3.510687 3.020654 7.196909 44.585726 6.611794 50.17357-0.585115 5.58053 10.356527 20.625287 10.356527 20.625287M607.062533 262.322199l-5.799948 18.95771a1151.680911 1151.680911 0 0 1-29.884724-7.489465c-16.763531-4.44687-26.066852-25.979085-35.523766-23.697139-9.508111 2.164924-16.558741 22.585421-16.558741 22.585421v-0.058511c2.091784-11.936336 7.994127-29.782329 15.937057-35.984543 5.17095-4.095802 22.197782-6.670306 27.215139-5.734123 4.966159 0.877672 31.66201 25.745039 33.54169 27.266337 1.828483 1.462786 11.073292 4.154313 11.073293 4.154313" fill="#FFFFFF" p-id="6970"></path><path d="M181.4868 672.889744s12.770124 27.273651 0 40.848308c-12.711613 13.640482-32.181299 26.754361-11.556012 24.7796 20.661857-1.974762 36.72325-9.866494 36.72325-9.866494L219.424162 695.343514 181.4868 672.889744z" fill="#EAEAEA" p-id="6971"></path><path d="M578.94778 587.236292c-94.349716 30.169967-136.814403-5.244089-188.333737-25.430539C339.2995 541.736324 228.332531 795.383469 230.746128 804.540512a299.958959 299.958959 0 0 1-7.504093-25.979085C191.119248 644.540946 372.329215 504.66932 372.329215 504.66932s58.328604 65.467001 145.020634 42.135559c6.597166-1.821169 12.872519-4.081174 18.869943-6.728817 58.760126-0.438836 48.520622 20.515578 128.293673 1.87968 46.004629-10.809991-17.209681 23.382639-85.565685 45.273236" fill="#515BD6" p-id="6972"></path><path d="M1137.366451 896.315724v0.051198a360.562196 360.562196 0 0 1-88.315723 58.701614c-130.50248 61.495536-283.327079 75.457831-425.49528 66.381242-25.891318-1.660262-50.444186-4.293278-73.665918-7.899046 0 0 232.400174-144.355066 295.307299-310.037556C908.052756 537.823371 837.049109 264.823564 983.371623 420.412829c146.322514 155.538068 153.994828 475.895582 153.994828 475.895581" fill="#515BD6" p-id="6973"></path><path d="M148.405888 691.196515s6.43626 16.507543 23.258302 22.86335c16.880554 6.36312 33.13211 6.524027 33.132109 6.524027s-5.924285 18.372596-11.263454 35.523765c-5.3026 17.151169-5.668297 27.463813-36.225903 10.532061C126.75665 749.795734-18.90761 649.463222 2.061432 650.955264c20.961728 1.499356 146.337142 40.226623 146.337142 40.226623" fill="#1631A4" p-id="6974"></path><path d="M970.082209 797.036418s-71.164554-80.826257-52.806585-146.468793c18.021527-64.391853 55.776042-90.714693 30.718512-145.108401-16.544113-35.765125-23.192477-86.121544 6.867782-100.924941 29.95055-14.686374 100.34714 44.234658 100.34714 117.798181 0 73.505012-50.392988 153.248807-34.56564 188.523899 15.768836 35.282406 33.790364 89.888218 58.745498 110.264831 24.896623 20.420497-109.306706-24.084776-109.306707-24.084776" fill="#FFD648" p-id="6975"></path><path d="M1025.492554 790.99511s-51.614415-91.884922-21.195773-151.354498c29.826213-58.445627 70.842741-76.320875 57.794687-133.640157-8.630439-37.732573-5.010043-87.430737 26.476432-95.753991 31.267057-8.264743 86.501868 62.365894 71.961772 133.215948-14.540096 70.740346-78.090847 137.501912-70.045522 174.642057 7.986813 37.037749 14.327992 93.179487 33.936642 117.754297 19.703731 24.530926-98.920924-44.863656-98.920924-44.863656" fill="#FFBC47" p-id="6976"></path><path d="M989.785941 797.22658a4.476126 4.476126 0 0 1-3.276642-1.440844c-17.845993-21.59804-27.617405-62.285441-26.21313-109.006836 1.462786-46.721394 13.925726-92.433466 33.46855-122.098772 36.452635-55.329892-16.032138-95.636968-18.314084-97.297231a3.598454 3.598454 0 0 1-0.585115-5.236775c1.462786-1.609065 3.978779-1.821169 5.734123-0.48272 0.643626 0.373011 60.266796 45.975373 20.127939 106.863854-39.787787 60.464272-43.883589 179.088927-7.723511 222.767726 1.345763 1.601751 0.994695 3.949523-0.819161 5.127066a3.898325 3.898325 0 0 1-2.398969 0.804532" fill="#FFBC47" p-id="6977"></path><path d="M974.338917 1016.644525h114.733644L1148.293464 767.970854h-226.731876z" fill="#6774FF" p-id="6978"></path><path d="M1066.596849 789.912649a3.554571 3.554571 0 0 1-3.174246-2.047901c-11.826627-24.231055-13.472262-66.381242-4.454184-112.524837 9.018078-46.253303 27.456499-89.639545 49.222759-115.977012 40.716657-49.325154 2.150296-97.684869 0.40958-99.681572a4.029976 4.029976 0 0 1 0.40958-5.33917 3.496059 3.496059 0 0 1 5.017357 0.431522c0.460778 0.541231 44.249286 55.366462-0.460777 109.445671-44.402878 53.698885-67.763575 171.021661-43.788508 220.185908a3.905639 3.905639 0 0 1-1.587124 5.075869 3.349781 3.349781 0 0 1-1.594437 0.431522" fill="#FFD648" p-id="6979"></path><path d="M1001.42972 767.970854s84.841606 57.004782 48.915574 107.719583C1014.419262 926.449122 965.445177 1016.644525 965.445177 1016.644525h120.548219L1148.293464 767.970854h-146.863744z" fill="#1631A4" p-id="6980"></path></svg>